<?xml version="1.0" encoding="UTF-8"?>
<svg xmlns="http://www.w3.org/2000/svg" xmlns:xlink="http://www.w3.org/1999/xlink" width="50px" height="50px" viewBox="0 0 50 50" version="1.1">
<g id="surface1">
<path style=" stroke:none;fill-rule:nonzero;fill:rgb(0%,0%,0%);fill-opacity:1;" d="M 25 4.167969 C 15.800781 4.175781 8.34375 11.632812 8.332031 20.832031 C 8.332031 27.613281 13.257812 33.246094 18.472656 39.207031 C 20.121094 41.09375 21.828125 43.046875 23.351562 45.019531 C 23.746094 45.53125 24.355469 45.832031 25 45.832031 C 25.644531 45.832031 26.253906 45.53125 26.648438 45.019531 C 28.171875 43.046875 29.878906 41.09375 31.527344 39.207031 C 36.742188 33.246094 41.667969 27.613281 41.667969 20.832031 C 41.65625 11.632812 34.199219 4.175781 25 4.167969 Z M 25 27.082031 C 21.546875 27.082031 18.75 24.285156 18.75 20.832031 C 18.75 17.382812 21.546875 14.582031 25 14.582031 C 28.453125 14.582031 31.25 17.382812 31.25 20.832031 C 31.25 24.285156 28.453125 27.082031 25 27.082031 Z M 25 27.082031 "/>
</g>
</svg>
